<svg fill="none" height="20" viewBox="0 0 394 394" width="20" xmlns="http://www.w3.org/2000/svg"><g stroke-linecap="round" stroke-linejoin="round" stroke-width="6.25"><path d="m228.25 172h12.5c1.658 0 3.247.658 4.419 1.831 1.173 1.172 1.831 2.761 1.831 4.419v37.5h-25v-37.5c0-1.658.658-3.247 1.831-4.419 1.172-1.173 2.761-1.831 4.419-1.831z" fill="#333" stroke="#231f20"/><path d="m240.75 172c1.658 0 3.247.658 4.419 1.831 1.173 1.172 1.831 2.761 1.831 4.419v37.5h-12.5v-37.5c0-1.658.658-3.247 1.831-4.419 1.172-1.173 2.761-1.831 4.419-1.831z" fill="#666" stroke="#231f20"/><path d="m330.715 184.5h-49.226c-2.124 0-4.213.541-6.07 1.573l-53.419 29.677h56.25l18.75 43.75 50.684-33.789c1.712-1.142 3.116-2.688 4.087-4.503.971-1.814 1.479-3.84 1.479-5.898v-11.62c0-2.058-.508-4.084-1.479-5.898-.971-1.815-2.375-3.361-4.087-4.503l-10.035-6.69c-2.053-1.369-4.466-2.099-6.934-2.099z" fill="#e4e4e4" stroke="#231f20"/><path d="m228.25 353.25v-37.5l-43.75-37.5-43.75 37.5v37.5" stroke="#231f20"/><path d="m184.5 278.25-62.5-31.25-81.25 68.75v37.5" stroke="#231f20"/><path d="m253.25 315.75h-25c-9.946 0-19.484 3.951-26.517 10.984-7.032 7.032-10.983 16.57-10.983 26.516s3.951 19.484 10.983 26.517c7.033 7.032 16.571 10.983 26.517 10.983h25c9.946 0 19.484-3.951 26.517-10.983 7.032-7.033 10.983-16.571 10.983-26.517s-3.951-19.484-10.983-26.516c-7.033-7.033-16.571-10.984-26.517-10.984z" fill="#1e4bde" stroke="#231f20"/><path d="m253.25 390.75c20.711 0 37.5-16.789 37.5-37.5s-16.789-37.5-37.5-37.5-37.5 16.789-37.5 37.5 16.789 37.5 37.5 37.5z" fill="#c8d4fa" stroke="#231f20"/><path d="m253.25 372c10.355 0 18.75-8.395 18.75-18.75s-8.395-18.75-18.75-18.75-18.75 8.395-18.75 18.75 8.395 18.75 18.75 18.75z" fill="#fff" stroke="#231f20"/><path d="m184.5 290.75c6.904 0 12.5-5.596 12.5-12.5s-5.596-12.5-12.5-12.5-12.5 5.596-12.5 12.5 5.596 12.5 12.5 12.5z" fill="#b1b1b1" stroke="#231f20"/><path d="m184.5 279.813c.863 0 1.562-.7 1.562-1.563s-.699-1.562-1.562-1.562-1.562.699-1.562 1.562.699 1.563 1.562 1.563z" fill="#1e4bde" stroke="#231f20"/><path d="m122 259.5c6.904 0 12.5-5.596 12.5-12.5s-5.596-12.5-12.5-12.5-12.5 5.596-12.5 12.5 5.596 12.5 12.5 12.5z" fill="#b1b1b1" stroke="#231f20"/><path d="m122 248.562c.863 0 1.562-.699 1.562-1.562s-.699-1.562-1.562-1.562-1.562.699-1.562 1.562.699 1.562 1.562 1.562z" fill="#1e4bde" stroke="#231f20"/><path d="m253.25 315.75h-25c-9.946 0-19.484 3.951-26.517 10.984-7.032 7.032-10.983 16.57-10.983 26.516s3.951 19.484 10.983 26.517c7.033 7.032 16.571 10.983 26.517 10.983h25c9.946 0 19.484-3.951 26.517-10.983 7.032-7.033 10.983-16.571 10.983-26.517s-3.951-19.484-10.983-26.516c-7.033-7.033-16.571-10.984-26.517-10.984z" fill="#231f20" stroke="#231f20"/><path d="m253.25 390.75c20.711 0 37.5-16.789 37.5-37.5s-16.789-37.5-37.5-37.5-37.5 16.789-37.5 37.5 16.789 37.5 37.5 37.5z" fill="#333" stroke="#231f20"/><path d="m253.25 365.75c6.904 0 12.5-5.596 12.5-12.5s-5.596-12.5-12.5-12.5-12.5 5.596-12.5 12.5 5.596 12.5 12.5 12.5z" fill="#666" stroke="#231f20"/><path d="m165.75 315.75h-25c-9.946 0-19.484 3.951-26.517 10.984-7.032 7.032-10.983 16.57-10.983 26.516s3.951 19.484 10.983 26.517c7.033 7.032 16.571 10.983 26.517 10.983h25c9.946 0 19.484-3.951 26.517-10.983 7.032-7.033 10.983-16.571 10.983-26.517s-3.951-19.484-10.983-26.516c-7.033-7.033-16.571-10.984-26.517-10.984z" fill="#231f20" stroke="#231f20"/><path d="m165.75 390.75c20.711 0 37.5-16.789 37.5-37.5s-16.789-37.5-37.5-37.5-37.5 16.789-37.5 37.5 16.789 37.5 37.5 37.5z" fill="#333" stroke="#231f20"/><path d="m165.75 365.75c6.904 0 12.5-5.596 12.5-12.5s-5.596-12.5-12.5-12.5-12.5 5.596-12.5 12.5 5.596 12.5 12.5 12.5z" fill="#666" stroke="#231f20"/><path d="m65.75 315.75h-25c-9.9456 0-19.4839 3.951-26.5165 10.984-7.03262 7.032-10.9835 16.57-10.9835 26.516s3.95088 19.484 10.9835 26.517c7.0326 7.032 16.5709 10.983 26.5165 10.983h25c9.9456 0 19.4839-3.951 26.5165-10.983 7.0326-7.033 10.9835-16.571 10.9835-26.517s-3.9509-19.484-10.9835-26.516c-7.0326-7.033-16.5709-10.984-26.5165-10.984z" fill="#231f20" stroke="#231f20"/><path d="m65.75 390.75c20.7107 0 37.5-16.789 37.5-37.5s-16.7893-37.5-37.5-37.5-37.5 16.789-37.5 37.5 16.7893 37.5 37.5 37.5z" fill="#333" stroke="#231f20"/><path d="m65.75 365.75c6.9036 0 12.5-5.596 12.5-12.5s-5.5964-12.5-12.5-12.5-12.5 5.596-12.5 12.5 5.5964 12.5 12.5 12.5z" fill="#666" stroke="#231f20"/><path d="m297 259.5 50.684-33.789c1.712-1.142 3.116-2.688 4.087-4.503.971-1.814 1.479-3.84 1.479-5.898v-11.62c0-2.058-.508-4.084-1.479-5.898-.971-1.815-2.375-3.361-4.087-4.503l-6.842-4.561c-1.911-1.274-4.135-1.997-6.429-2.089-2.294-.093-4.569.447-6.576 1.562l-49.587 27.549z" fill="#fff" stroke="#231f20"/><path d="m294.181 221.194 39.725-22.069 6.844 4.562v11.626l-38.181 25.449z" stroke="#ffc700"/><path d="m315.75 215.75h-256.25c-6.9036 0-12.5 5.596-12.5 12.5v37.5c0 6.904 5.5964 12.5 12.5 12.5h256.25c6.904 0 12.5-5.596 12.5-12.5v-37.5c0-6.904-5.596-12.5-12.5-12.5z" fill="#fff" stroke="#231f20"/><path d="m312.625 240.75h-18.75c-1.726 0-3.125 1.399-3.125 3.125v18.75c0 1.726 1.399 3.125 3.125 3.125h18.75c1.726 0 3.125-1.399 3.125-3.125v-18.75c0-1.726-1.399-3.125-3.125-3.125z" fill="#e4e4e4" stroke="#e4e4e4"/><path d="m328.25 353.25v-37.5l-43.75-37.5-43.75 37.5v37.5" stroke="#231f20"/><path d="m284.5 278.25-62.5-31.25-81.25 68.75v37.5" stroke="#231f20"/><path d="m353.25 315.75h-25c-9.946 0-19.484 3.951-26.517 10.984-7.032 7.032-10.983 16.57-10.983 26.516s3.951 19.484 10.983 26.517c7.033 7.032 16.571 10.983 26.517 10.983h25c9.946 0 19.484-3.951 26.517-10.983 7.032-7.033 10.983-16.571 10.983-26.517s-3.951-19.484-10.983-26.516c-7.033-7.033-16.571-10.984-26.517-10.984z" fill="#1e4bde" stroke="#231f20"/><path d="m353.25 390.75c20.711 0 37.5-16.789 37.5-37.5s-16.789-37.5-37.5-37.5-37.5 16.789-37.5 37.5 16.789 37.5 37.5 37.5z" fill="#c8d4fa" stroke="#231f20"/><path d="m353.25 372c10.355 0 18.75-8.395 18.75-18.75s-8.395-18.75-18.75-18.75-18.75 8.395-18.75 18.75 8.395 18.75 18.75 18.75z" fill="#fff" stroke="#231f20"/><path d="m284.5 290.75c6.904 0 12.5-5.596 12.5-12.5s-5.596-12.5-12.5-12.5-12.5 5.596-12.5 12.5 5.596 12.5 12.5 12.5z" fill="#fff" stroke="#231f20"/><path d="m284.5 279.813c.863 0 1.562-.7 1.562-1.563s-.699-1.562-1.562-1.562-1.562.699-1.562 1.562.699 1.563 1.562 1.563z" fill="#b1b1b1" stroke="#b1b1b1"/><path d="m222 259.5c6.904 0 12.5-5.596 12.5-12.5s-5.596-12.5-12.5-12.5-12.5 5.596-12.5 12.5 5.596 12.5 12.5 12.5z" fill="#fff" stroke="#231f20"/><path d="m222 248.562c.863 0 1.562-.699 1.562-1.562s-.699-1.562-1.562-1.562-1.562.699-1.562 1.562.699 1.562 1.562 1.562z" fill="#b1b1b1" stroke="#b1b1b1"/><g stroke="#231f20"><path d="m353.25 315.75h-25c-9.946 0-19.484 3.951-26.517 10.984-7.032 7.032-10.983 16.57-10.983 26.516s3.951 19.484 10.983 26.517c7.033 7.032 16.571 10.983 26.517 10.983h25c9.946 0 19.484-3.951 26.517-10.983 7.032-7.033 10.983-16.571 10.983-26.517s-3.951-19.484-10.983-26.516c-7.033-7.033-16.571-10.984-26.517-10.984z" fill="#231f20"/><path d="m353.25 390.75c20.711 0 37.5-16.789 37.5-37.5s-16.789-37.5-37.5-37.5-37.5 16.789-37.5 37.5 16.789 37.5 37.5 37.5z" fill="#666"/><path d="m353.25 365.75c6.904 0 12.5-5.596 12.5-12.5s-5.596-12.5-12.5-12.5-12.5 5.596-12.5 12.5 5.596 12.5 12.5 12.5z" fill="#999"/><path d="m265.75 315.75h-25c-9.946 0-19.484 3.951-26.517 10.984-7.032 7.032-10.983 16.57-10.983 26.516s3.951 19.484 10.983 26.517c7.033 7.032 16.571 10.983 26.517 10.983h25c9.946 0 19.484-3.951 26.517-10.983 7.032-7.033 10.983-16.571 10.983-26.517s-3.951-19.484-10.983-26.516c-7.033-7.033-16.571-10.984-26.517-10.984z" fill="#231f20"/><path d="m265.75 390.75c20.711 0 37.5-16.789 37.5-37.5s-16.789-37.5-37.5-37.5-37.5 16.789-37.5 37.5 16.789 37.5 37.5 37.5z" fill="#666"/><path d="m265.75 365.75c6.904 0 12.5-5.596 12.5-12.5s-5.596-12.5-12.5-12.5-12.5 5.596-12.5 12.5 5.596 12.5 12.5 12.5z" fill="#999"/><path d="m165.75 315.75h-25c-9.946 0-19.484 3.951-26.517 10.984-7.032 7.032-10.983 16.57-10.983 26.516s3.951 19.484 10.983 26.517c7.033 7.032 16.571 10.983 26.517 10.983h25c9.946 0 19.484-3.951 26.517-10.983 7.032-7.033 10.983-16.571 10.983-26.517s-3.951-19.484-10.983-26.516c-7.033-7.033-16.571-10.984-26.517-10.984z" fill="#231f20"/><path d="m165.75 390.75c20.711 0 37.5-16.789 37.5-37.5s-16.789-37.5-37.5-37.5-37.5 16.789-37.5 37.5 16.789 37.5 37.5 37.5z" fill="#666"/><path d="m165.75 365.75c6.904 0 12.5-5.596 12.5-12.5s-5.596-12.5-12.5-12.5-12.5 5.596-12.5 12.5 5.596 12.5 12.5 12.5z" fill="#999"/><path d="m159.5 215.75h-100c-6.9036 0-12.5 5.596-12.5 12.5v37.5c0 6.904 5.5964 12.5 12.5 12.5h100c6.904 0 12.5-5.596 12.5-12.5v-37.5c0-6.904-5.596-12.5-12.5-12.5z" fill="#b1b1b1"/><path d="m334.5 184.5v-62.5"/><path d="m59.5 53.25v43.75c0 6.904 5.5964 12.5 12.5 12.5h106.25c6.904 0 12.5-5.596 12.5-12.5v-43.75c0-6.9036-5.596-12.5-12.5-12.5h-106.25c-6.9036 0-12.5 5.5964-12.5 12.5z" fill="#fff"/><path d="m59.5 90.75h131.25v6.25c0 3.315-1.317 6.495-3.661 8.839s-5.524 3.661-8.839 3.661h-106.25c-3.3152 0-6.4946-1.317-8.8388-3.661s-3.6612-5.524-3.6612-8.839z" fill="#666"/><path d="m59.5 53.25v43.75c0 6.904 5.5964 12.5 12.5 12.5h68.75c6.904 0 12.5-5.596 12.5-12.5v-43.75c0-6.9036-5.596-12.5-12.5-12.5h-68.75c-6.9036 0-12.5 5.5964-12.5 12.5z" fill="#b1b1b1"/><path d="m59.5 90.75h93.75v6.25c0 3.315-1.317 6.495-3.661 8.839s-5.524 3.661-8.839 3.661h-68.75c-3.3152 0-6.4946-1.317-8.8388-3.661s-3.6612-5.524-3.6612-8.839z" fill="#333"/><path d="m134.5 65.75c0-3.4518-2.798-6.25-6.25-6.25s-6.25 2.7982-6.25 6.25 2.798 6.25 6.25 6.25 6.25-2.7982 6.25-6.25z" fill="#3df"/><path d="m109.5 153.25h-12.5l25-43.75h12.5z" fill="#fff"/><path d="m97 153.25h-12.5l25-43.75h12.5z" fill="#e4e4e4"/><path d="m103.25 203.25h12.5l-18.75-50h-12.5z" fill="#e4e4e4"/><path d="m115.75 203.25h12.5l-18.75-50h-12.5z" fill="#fff"/><path d="m109.5 140.75h-18.75c-3.3152 0-6.4946 1.317-8.8388 3.661s-3.6612 5.524-3.6612 8.839 1.317 6.495 3.6612 8.839 5.5236 3.661 8.8388 3.661h18.75c3.315 0 6.495-1.317 8.839-3.661s3.661-5.524 3.661-8.839-1.317-6.495-3.661-8.839-5.524-3.661-8.839-3.661z" fill="#e4e4e4"/><path d="m109.5 165.75c6.904 0 12.5-5.596 12.5-12.5s-5.596-12.5-12.5-12.5-12.5 5.596-12.5 12.5 5.596 12.5 12.5 12.5z" fill="#fff"/><path d="m122 190.75h-18.75c-3.3152 0-6.4946 1.317-8.8388 3.661s-3.6612 5.524-3.6612 8.839v12.5h43.75v-12.5c0-3.315-1.317-6.495-3.661-8.839s-5.524-3.661-8.839-3.661z" fill="#e4e4e4"/><path d="m109.5 215.75v-12.5c0-3.315 1.317-6.495 3.661-8.839s5.524-3.661 8.839-3.661 6.495 1.317 8.839 3.661 3.661 5.524 3.661 8.839v12.5z" fill="#fff"/><path d="m178.25 203.25h37.5c1.658 0 3.247.658 4.419 1.831 1.173 1.172 1.831 2.761 1.831 4.419v6.25h-50v-6.25c0-1.658.658-3.247 1.831-4.419 1.172-1.173 2.761-1.831 4.419-1.831z" fill="#fff"/><path d="m165.75 203.25h25c1.658 0 3.247.658 4.419 1.831 1.173 1.172 1.831 2.761 1.831 4.419v6.25h-37.5v-6.25c0-1.658.658-3.247 1.831-4.419 1.172-1.173 2.761-1.831 4.419-1.831z" fill="#b1b1b1"/><path d="m153.25 234.5h-37.5c-3.315 0-6.495 1.317-8.839 3.661s-3.661 5.524-3.661 8.839 1.317 6.495 3.661 8.839 5.524 3.661 8.839 3.661h37.5z" fill="#c8d4fa"/><path d="m134.5 240.75v12.5l-43.75-18.75v-12.5z" fill="#fff"/><path d="m90.75 234.5h-25l43.75 18.75h25z" fill="#b1b1b1"/><path d="m153.25 259.5h-18.75c-3.315 0-6.495-1.317-8.839-3.661s-3.661-5.524-3.661-8.839 1.317-6.495 3.661-8.839 5.524-3.661 8.839-3.661h18.75z" fill="#fff"/><path d="m53.25 290.75h12.5l18.75-62.5h-12.5z" fill="#e4e4e4"/><path d="m65.75 290.75h12.5l18.75-62.5h-12.5z" fill="#fff"/><path d="m90.75 215.75h-18.75c-3.3152 0-6.4946 1.317-8.8388 3.661s-3.6612 5.524-3.6612 8.839 1.317 6.495 3.6612 8.839 5.5236 3.661 8.8388 3.661h18.75c3.3152 0 6.4946-1.317 8.8388-3.661s3.6612-5.524 3.6612-8.839-1.317-6.495-3.6612-8.839-5.5236-3.661-8.8388-3.661z" fill="#e4e4e4"/><path d="m90.75 240.75c6.9036 0 12.5-5.596 12.5-12.5s-5.5964-12.5-12.5-12.5-12.5 5.596-12.5 12.5 5.5964 12.5 12.5 12.5z" fill="#fff"/><path d="m109.5 303.25h-87.5c-3.4518 0-6.25 2.798-6.25 6.25v12.5c0 3.452 2.7982 6.25 6.25 6.25h87.5c3.452 0 6.25-2.798 6.25-6.25v-12.5c0-3.452-2.798-6.25-6.25-6.25z" fill="#fff"/><path d="m22 328.25h50c3.4518 0 6.25-2.798 6.25-6.25v-12.5c0-3.452-2.7982-6.25-6.25-6.25h-50c-3.4518 0-6.25 2.798-6.25 6.25v12.5c0 3.452 2.7982 6.25 6.25 6.25z" fill="#e4e4e4"/><path d="m67.3125 315.75h-6.25"/><path d="m26.6875 315.75h6.25"/><path d="m47 317.313c.8629 0 1.5625-.7 1.5625-1.563s-.6996-1.562-1.5625-1.562-1.5625.699-1.5625 1.562.6996 1.563 1.5625 1.563z" fill="#ff3446"/><path d="m75.125 278.25h-18.75c-3.3152 0-6.4946 1.317-8.8388 3.661s-3.6612 5.524-3.6612 8.839v12.5h43.75v-12.5c0-3.315-1.317-6.495-3.6612-8.839s-5.5236-3.661-8.8388-3.661z" fill="#e4e4e4"/><path d="m62.625 303.25v-12.5c0-3.315 1.317-6.495 3.6612-8.839s5.5236-3.661 8.8388-3.661 6.4946 1.317 8.8388 3.661 3.6612 5.524 3.6612 8.839v12.5z" fill="#fff"/></g><path d="m15.75 140.75c6.9036 0 12.5-5.596 12.5-12.5s-5.5964-12.5-12.5-12.5c-6.90356 0-12.5 5.596-12.5 12.5s5.59644 12.5 12.5 12.5z" fill="#ffc700" stroke="#ffc700"/><path d="m347 97c6.904 0 12.5-5.5964 12.5-12.5s-5.596-12.5-12.5-12.5-12.5 5.5964-12.5 12.5 5.596 12.5 12.5 12.5z" fill="#ffc700" stroke="#ffc700"/><path d="m235.281 98.5629c.432 0 .781-.3498.781-.7813 0-.4314-.349-.7812-.781-.7812-.431 0-.781.3498-.781.7812 0 .4315.35.7813.781.7813z" fill="#ffc700" stroke="#ffc700"/><path d="m291.531 141.531c.432 0 .781-.35.781-.781s-.349-.781-.781-.781c-.431 0-.781.35-.781.781s.35.781.781.781z" fill="#ffc700" stroke="#ffc700"/><path d="m47 178.25c.4315 0 .7812-.35.7812-.781 0-.432-.3497-.781-.7812-.781s-.7812.349-.7812.781c0 .431.3497.781.7812.781z" fill="#ffc700" stroke="#ffc700"/><path d="m366.531 154.031c.432 0 .781-.35.781-.781s-.349-.781-.781-.781c-.431 0-.781.35-.781.781s.35.781.781.781z" fill="#ffc700" stroke="#ffc700"/><path d="m146.219 9.89062c.431 0 .781-.34977.781-.78124 0-.43148-.35-.78126-.781-.78126-.432 0-.781.34978-.781.78126 0 .43147.349.78124.781.78124z" fill="#ffc700" stroke="#ffc700"/><path d="m347.391 22.3906c0 .0773-.023.1528-.066.2171-.043.0642-.104.1143-.176.1438-.071.0296-.15.0373-.225.0222-.076-.015-.146-.0523-.2-.1069-.055-.0546-.092-.1243-.107-.2-.015-.0758-.008-.1544.022-.2257.03-.0714.08-.1324.144-.1753s.14-.0658.217-.0658c.051 0 .102.0101.149.0297.048.0197.091.0484.127.0847s.065.0794.085.1267c.019.0474.03.0982.03.1495z" fill="#ffc700" stroke="#ffc700"/><path d="m35.2813 21.6094c0 .0772-.023.1528-.0659.217s-.1039.1143-.1753.1439c-.0714.0295-.1499.0373-.2257.0222s-.1454-.0523-.2-.107c-.0547-.0546-.0919-.1242-.1069-.2-.0151-.0758-.0073-.1543.0223-.2257s.0796-.1324.1439-.1753.1398-.0658.2171-.0657c.0512 0 .102.0101.1494.0297s.0905.0484.1267.0847c.0363.0362.065.0793.0847.1267.0196.0474.0297.0982.0297.1495z" fill="#ffc700" stroke="#ffc700"/><path d="m168.875 159.5c1.726 0 3.125-1.399 3.125-3.125s-1.399-3.125-3.125-3.125-3.125 1.399-3.125 3.125 1.399 3.125 3.125 3.125z" fill="#ffc700" stroke="#ffc700"/><path d="m275.125 72.0004c18.985 0 34.375-15.3902 34.375-34.375s-15.39-34.37502-34.375-34.37502-34.375 15.39022-34.375 34.37502 15.39 34.375 34.375 34.375z" fill="#e4e4e4" stroke="#e4e4e4"/></g></svg>