<svg viewBox="0 0 64 64" xmlns="http://www.w3.org/2000/svg"><circle cx="34" cy="28" fill="#edebdc" r="23"/><path d="m51 9v2" fill="none" stroke="#4c241d" stroke-linecap="round" stroke-linejoin="round" stroke-width="2"/><path d="m51 15v2" fill="none" stroke="#4c241d" stroke-linecap="round" stroke-linejoin="round" stroke-width="2"/><path d="m47 13h2" fill="none" stroke="#4c241d" stroke-linecap="round" stroke-linejoin="round" stroke-width="2"/><path d="m53 13h2" fill="none" stroke="#4c241d" stroke-linecap="round" stroke-linejoin="round" stroke-width="2"/><circle cx="57.251" cy="28.232" fill="#4c241d" r="1.069"/><circle cx="19.251" cy="13.232" fill="#4c241d" r="1.069"/><circle cx="10.251" cy="24.232" fill="#4c241d" r="1.069"/><circle cx="5.251" cy="43.232" fill="#4c241d" r="1.069"/><circle cx="22.251" cy="29.232" fill="#4c241d" r="1.069"/><circle cx="45.251" cy="23.232" fill="#4c241d" r="1.069"/><circle cx="52.251" cy="47.232" fill="#4c241d" r="1.069"/><circle cx="10.251" cy="10.232" fill="#4c241d" r="1.069"/><g stroke="#4c241d" stroke-linecap="round" stroke-linejoin="round" stroke-width="2"><path d="m36 47h-8v-36l4-7 4 7z" fill="#9dc1e4"/><path d="m32 1v3" fill="none"/><path d="m32 46h-8v-9l4-7 4 7z" fill="#fff"/><path d="m40 46h-8v-9l4-7 4 7z" fill="#fff"/><path d="m24 46h8v3h-8z" fill="#9dc1e4"/><path d="m32 46h8v3h-8z" fill="#9dc1e4"/><path d="m24 49h8v3h-8z" fill="#e66353"/><path d="m32 49h8v3h-8z" fill="#e66353"/><path d="m28 18h8v7h-8z" fill="#fff"/><path d="m41 60.089v-.567a2.522 2.522 0 0 0 -2.522-2.522h-4.478v-5h-4v5h-4.478a2.522 2.522 0 0 0 -2.522 2.522v.567a2.642 2.642 0 0 0 -2 2.558v.353h22v-.353a2.642 2.642 0 0 0 -2-2.558z" fill="#ffe8dc"/></g></svg>