<svg enable-background="new 0 0 20 20" viewBox="0 0 128 128" xmlns="http://www.w3.org/2000/svg" xmlns:xlink="http://www.w3.org/1999/xlink"><linearGradient id="a" gradientTransform="matrix(-1 0 0 1 128.84 0)" gradientUnits="userSpaceOnUse" x1="89.984" x2="44.117" y1="90.321" y2="42.16"><stop offset=".0016526" stop-color="#90a4ae"/><stop offset=".217" stop-color="#a0b1ba"/><stop offset=".7241" stop-color="#c2cdd3"/><stop offset="1" stop-color="#cfd8dc"/></linearGradient><path d="m50.31 94.65-16.81-16.81c-1.39-1.39-.14-3.03 1.01-3.53l9.85-5.52 15.16 15.16-5.71 9.56c-.52 1.15-2.13 2.52-3.5 1.14z" fill="#616161"/><path d="m60.74 39.3h6.88v49.28h-6.88z" fill="#616161" transform="matrix(.7071 -.7071 .7071 .7071 -26.418 64.114)"/><path d="m49.19 45.5 33.44 33.44-3.45 3.45-33.44-33.44zm0-1.41-4.86 4.86 34.85 34.85 4.86-4.86z" fill="#eee" opacity=".2"/><g fill="#90a4ae"><path d="m94.6 47.81 4.3 1.03 5.88-22.56-4.3-1.03z"/><path d="m80.28 33.48-1.03-4.3 22.56-5.87 1.03 4.3z"/></g><g fill="#424242" opacity=".2"><path d="m101.2 26.45 2.35.56-5.37 20.62-2.35-.56zm-.72-1.2-5.88 22.56 4.3 1.03 5.88-22.56z"/><path d="m101.07 24.53.56 2.35-20.62 5.37-.56-2.35zm.74-1.22-22.56 5.88 1.03 4.3 22.56-5.88z"/></g><path d="m78.01 38.56h9.36v13.94h-9.36z" fill="#424242" transform="matrix(-.7071 -.7071 .7071 -.7071 108.96 136.2)"/><path d="m40.61 71.93 15.35 15.35c1.17 1.17 3.07 1.17 4.24 0l28.18-28.18c1.17-1.17 1.17-3.07 0-4.24l-15.36-15.34c-1.17-1.17-3.07-1.17-4.24 0l-28.17 28.17c-1.18 1.17-1.18 3.07 0 4.24z" fill="url(#a)"/><path d="m98.24 122.68-31.2-31.2c-1.17-1.17-1.17-3.07 0-4.24l20.2-20.2c1.17-1.17 3.07-1.17 4.24 0l31.2 31.2c1.17 1.17 1.17 3.07 0 4.24l-20.2 20.2c-1.16 1.17-3.06 1.17-4.24 0z" fill="#0277bd"/><g fill="#81d4fa"><path d="m99.37 84.56h4.93v34.56h-4.93z" transform="matrix(-.7071 -.7071 .7071 -.7071 101.84 245.86)"/><path d="m85.43 70.61h4.93v34.56h-4.93z" transform="matrix(-.7071 -.7071 .7071 -.7071 87.892 212.19)"/></g><path d="m36.51 60.95-31.2-31.2c-1.17-1.17-1.17-3.07 0-4.24l20.2-20.2c1.17-1.17 3.07-1.17 4.24 0l31.2 31.2c1.17 1.17 1.17 3.07 0 4.24l-20.2 20.2c-1.16 1.17-3.06 1.17-4.24 0z" fill="#0277bd"/><g fill="#81d4fa"><path d="m37.64 22.83h4.93v34.56h-4.93z" transform="matrix(-.7071 -.7071 .7071 -.7071 40.108 96.828)"/><path d="m23.7 8.88h4.93v34.56h-4.93z" transform="matrix(-.7071 -.7071 .7071 -.7071 26.163 63.163)"/></g><path d="m101.11 48.54c1 1 .88 2.69-.29 3.49-6.22 4.23-13.81 1.87-20.02-4.34-6.2-6.2-8.91-14.12-4.77-20.41.78-1.19 2.49-1.31 3.5-.31z" fill="#cfd8dc"/><path d="m98.24 122.68-31.2-31.2c-1.17-1.17-1.17-3.07 0-4.24l20.2-20.2c1.17-1.17 3.07-1.17 4.24 0l31.2 31.2c1.17 1.17 1.17 3.07 0 4.24l-20.2 20.2c-1.16 1.17-3.06 1.17-4.24 0z" fill="#0277bd"/><g fill="#03a9f4"><path d="m99.37 84.56h4.93v34.56h-4.93z" transform="matrix(-.7071 -.7071 .7071 -.7071 101.84 245.86)"/><path d="m85.43 70.61h4.93v34.56h-4.93z" transform="matrix(-.7071 -.7071 .7071 -.7071 87.892 212.19)"/></g><path d="m36.51 60.95-31.2-31.2c-1.17-1.17-1.17-3.07 0-4.24l20.2-20.2c1.17-1.17 3.07-1.17 4.24 0l31.2 31.2c1.17 1.17 1.17 3.07 0 4.24l-20.2 20.2c-1.16 1.17-3.06 1.17-4.24 0z" fill="#0277bd"/><g fill="#03a9f4"><path d="m37.64 22.83h4.93v34.56h-4.93z" transform="matrix(-.7071 -.7071 .7071 -.7071 40.108 96.828)"/><path d="m23.7 8.88h4.93v34.56h-4.93z" transform="matrix(-.7071 -.7071 .7071 -.7071 26.163 63.163)"/></g><g fill="#424242"><path d="m89.36 69.17 31.2 31.2-20.2 20.2-31.2-31.2zm0-3c-.77 0-1.54.29-2.12.88l-20.2 20.2c-1.17 1.17-1.17 3.07 0 4.24l31.2 31.2c.59.59 1.35.88 2.12.88s1.54-.29 2.12-.88l20.2-20.2c1.17-1.17 1.17-3.07 0-4.24l-31.2-31.2c-.58-.59-1.35-.88-2.12-.88z" opacity=".2"/><path d="m27.63 7.44 31.2 31.2-20.2 20.2-31.2-31.2 20.2-20.2m0-3c-.77 0-1.54.29-2.12.88l-20.2 20.2c-1.17 1.17-1.17 3.07 0 4.24l31.2 31.2c.59.59 1.35.88 2.12.88s1.54-.29 2.12-.88l20.2-20.2c1.17-1.17 1.17-3.07 0-4.24l-31.2-31.2c-.58-.59-1.35-.88-2.12-.88z" opacity=".2"/><path d="m70.9 41.2c.38 0 .75.15 1.02.42l14.73 14.73c.56.56.56 1.47 0 2.03l-27.56 27.56c-.26.26-.62.41-1 .41-.13 0-.27-.02-.4-.05-.17-.05-.35-.07-.52-.07-.69 0-1.35.36-1.72.97l-3.38 5.66c-.04.07-.08.15-.12.23-.07.16-.21.33-.33.43l-16.7-16.7c.08-.11.23-.24.37-.3l.18-.09 5.67-3.18c.88-.5 1.26-1.58.87-2.51-.22-.54-.1-1.16.31-1.57l27.56-27.56c.28-.26.64-.41 1.02-.41m0-2c-.88 0-1.76.34-2.43 1.01l-27.55 27.55c-1.01 1.01-1.26 2.5-.74 3.75l-5.67 3.18c-1.15.5-2.4 2.14-1.01 3.53l16.81 16.81c.41.41.84.58 1.26.58.98 0 1.87-.91 2.22-1.72l3.38-5.66c.3.08.61.12.92.12.87 0 1.74-.33 2.41-.99l27.56-27.56c1.34-1.34 1.34-3.52 0-4.86l-14.73-14.74c-.67-.67-1.55-1-2.43-1z" opacity=".2"/><path d="m77.9 28.3c.05 0 .15.01.23.09l21.57 21.57c.1.1.1.21.09.26-.01.11-.07.15-.09.16-1.75 1.19-3.66 1.79-5.7 1.79-3.79 0-7.98-2.09-11.78-5.89-4.75-4.75-8.43-11.95-4.51-17.89.04-.06.1-.09.19-.09m0-2c-.72 0-1.43.33-1.86.99-4.14 6.28-1.43 14.21 4.77 20.41 4.06 4.06 8.72 6.48 13.19 6.48 2.36 0 4.68-.67 6.83-2.14 1.17-.8 1.29-2.49.29-3.49l-21.58-21.57c-.45-.46-1.05-.68-1.64-.68z" opacity=".2"/></g><circle cx="103.29" cy="25.17" fill="#616161" r="4.58"/><path d="m103.29 21.59c.96 0 1.86.37 2.53 1.05.68.68 1.05 1.58 1.05 2.53s-.37 1.86-1.05 2.53c-.68.68-1.58 1.05-2.53 1.05-.96 0-1.86-.37-2.53-1.05-.68-.68-1.05-1.58-1.05-2.53s.37-1.86 1.05-2.53c.68-.68 1.58-1.05 2.53-1.05m0-1c-1.17 0-2.35.45-3.24 1.34-1.79 1.79-1.79 4.69 0 6.48.9.9 2.07 1.34 3.24 1.34s2.35-.45 3.24-1.34c1.79-1.79 1.79-4.69 0-6.48-.89-.9-2.06-1.34-3.24-1.34z" fill="#eee" opacity=".2"/></svg>